<?xml version="1.0" encoding="utf-8"?>
<!-- Generator: Adobe Illustrator 21.0.0, SVG Export Plug-In . SVG Version: 6.00 Build 0)  -->
<svg version="1.1" id="Layer_1" xmlns="http://www.w3.org/2000/svg" xmlns:xlink="http://www.w3.org/1999/xlink" x="0px" y="0px"
	 viewBox="0 0 553.4 836.4" style="enable-background:new 0 0 553.4 836.4;" xml:space="preserve">
<style type="text/css">
	.st0{fill:#013538;}
	.st1{fill:url(#SVGID_1_);}
	.st2{fill:url(#SVGID_2_);}
	.st3{fill:url(#SVGID_3_);}
	.st4{fill:url(#SVGID_4_);}
	.st5{fill:url(#SVGID_5_);}
	.st6{fill:#90C448;}
	.st7{fill:url(#SVGID_6_);}
	.st8{fill:url(#SVGID_7_);}
	.st9{fill:url(#SVGID_8_);}
	.st10{fill:url(#SVGID_9_);}
	.st11{fill:url(#SVGID_10_);}
	.st12{fill:url(#SVGID_11_);}
	.st13{fill:url(#SVGID_12_);}
	.st14{fill:url(#SVGID_13_);}
</style>
<text transform="matrix(1 0 0 1 58.6923 908.9693)" class="st0" style="font-family:'OrbonRegularITCTT'; font-size:29.5143px; letter-spacing:2;">LET’S MAKE OUR DREAM COME TRUE, TOGETHER</text>
<g>
	<g>
		<path class="st0" d="M64.6,830.9h-3.1c-2,0-3-1.1-3-3.3v-17.8h1.8V827c0,0.8,0.1,1.4,0.2,1.7c0.2,0.4,0.6,0.6,1.1,0.6h3V830.9z"/>
		<path class="st0" d="M73.8,830.9h-3.1c-2,0-3-1.1-3-3.3V813c0-2.1,1-3.2,3-3.2h3.1v1.6h-2.6c-0.8,0-1.2,0.1-1.4,0.4
			c-0.2,0.3-0.3,0.9-0.3,1.8v4.8h4.1v1.7h-4.1v6.9c0,0.8,0.1,1.4,0.2,1.7c0.2,0.4,0.6,0.6,1.1,0.6h3V830.9z"/>
		<path class="st0" d="M84.9,811.4H82v19.5h-1.8v-19.5h-2.9v-1.6h7.5V811.4z"/>
		<path class="st0" d="M91,809.8l-2,4.8h-0.2v-4.8H91z"/>
		<path class="st0" d="M102.5,824.1c0,2.3-0.4,4.1-1.2,5.4c-0.7,1.2-1.6,1.8-2.6,1.8s-1.9-0.6-2.7-1.8c-0.8-1.3-1.2-3.1-1.2-5.4
			v-0.9h1.8v1.8c0,1.3,0.2,2.3,0.7,3.2c0.5,0.9,0.9,1.3,1.4,1.3c0.5,0,1-0.4,1.4-1.3c0.5-0.9,0.7-1.9,0.7-3.2v-2.9
			c0-0.7-0.1-1.2-0.2-1.4c-0.2-0.4-0.6-0.6-1.2-0.6h-1.9c-1.2,0-2-0.2-2.3-0.7c-0.3-0.4-0.5-1.3-0.5-2.6V813c0-2.1,1-3.2,3-3.2h1.6
			c1.2,0,2,0.3,2.4,0.9c0.4,0.6,0.6,1.7,0.6,3.1v1.4h-1.7v-1.7c0-0.7-0.1-1.2-0.2-1.5c-0.2-0.5-0.6-0.7-1.2-0.7h-1.5
			c-0.6,0-1,0.2-1.2,0.7c-0.1,0.3-0.2,0.8-0.2,1.5v3.3c0,0.7,0,1,0.1,1.2c0.1,0.2,0.4,0.3,1,0.3h2.6c0.7,0,1.2,0.2,1.6,0.6
			c0.4,0.4,0.6,0.9,0.6,1.5c0,0.2,0,0.5,0,0.7c0,0.3,0,0.4,0,0.5V824.1z"/>
		<path class="st0" d="M126.3,830.9h-1.7v-18.4l-0.2,0l-2.7,2.8c-0.3,0.3-0.4,0.6-0.4,0.9v14.8h-1.7v-14.8c0-0.3-0.1-0.6-0.4-0.9
			l-2.7-2.8l-0.2,0v18.4h-1.7v-21.1h1.2c0.4,0,0.7,0.1,1,0.4l3.7,4.1l3.7-4.1c0.2-0.3,0.6-0.4,0.9-0.4h1.2V830.9z"/>
		<path class="st0" d="M138.4,813c0,0.1,0,0.3,0,0.5c0,0.2,0,0.3,0,0.4v17h-1.7v-7.6h-4v7.6H131V813c0-2.1,1-3.2,3-3.2h1.4
			C137.4,809.8,138.4,810.9,138.4,813z M136.7,821.5v-7.8c0-0.9-0.1-1.4-0.2-1.7c-0.2-0.4-0.7-0.6-1.6-0.6h-0.5
			c-0.8,0-1.4,0.2-1.6,0.6c-0.1,0.2-0.2,0.8-0.2,1.7v7.8H136.7z"/>
		<path class="st0" d="M150.4,830.9h-1.8v-7.2c0-0.4,0-0.7-0.1-0.9c-0.1-0.2-0.3-0.4-0.7-0.7l-2.9-1.8v10.5h-1.8v-21.1h1.8v8.7
			l1.4,0.8l1.7-1.3c0.3-0.2,0.5-0.6,0.5-1v-7.2h1.8v7.3c0,0.6,0,0.9-0.1,1.2c-0.1,0.2-0.3,0.5-0.8,0.8l-1.6,1.2l2.1,1.3
			c0.4,0.3,0.6,0.9,0.6,2V830.9z"/>
		<path class="st0" d="M161.2,830.9h-3.1c-2,0-3-1.1-3-3.3V813c0-2.1,1-3.2,3-3.2h3.1v1.6h-2.6c-0.8,0-1.2,0.1-1.4,0.4
			c-0.2,0.3-0.3,0.9-0.3,1.8v4.8h4.1v1.7h-4.1v6.9c0,0.8,0.1,1.4,0.2,1.7c0.2,0.4,0.6,0.6,1.1,0.6h3V830.9z"/>
		<path class="st0" d="M180.8,824.1c0,2.3-0.3,4-1,5.1c-0.8,1.4-1.8,2.1-2.9,2.1s-2-0.7-2.9-2.1c-0.7-1.1-1-2.8-1-5.1v-10.2
			c0-1.5,0.2-2.5,0.6-3.1c0.4-0.7,1.3-1,2.5-1h1.6c1.2,0,2.1,0.3,2.5,1c0.4,0.6,0.6,1.6,0.6,3.1V824.1z M179.1,824.1v-10.3
			c0-0.7-0.1-1.2-0.2-1.5c-0.2-0.5-0.6-0.7-1.2-0.7h-1.5c-0.6,0-1,0.2-1.2,0.7c-0.1,0.3-0.2,0.8-0.2,1.5v10.3c0,1.7,0.2,3.1,0.7,4.1
			c0.4,0.9,0.9,1.3,1.5,1.3c0.6,0,1.1-0.4,1.5-1.3C178.9,827.2,179.1,825.8,179.1,824.1z"/>
		<path class="st0" d="M193.2,830.9h-4.5c-1.2,0-2-0.3-2.4-1c-0.5-0.7-0.7-1.8-0.7-3.3v-16.7h1.8v16.9c0,1,0.1,1.6,0.4,2
			c0.2,0.4,0.7,0.6,1.3,0.6h2.4v-19.5h1.7V830.9z"/>
		<path class="st0" d="M205.3,830.9h-1.7v-6.9c0-0.5-0.3-0.9-0.9-1.3l-3.2-1.9v10.2h-1.8v-21.1h4.4c2,0,3,1.1,3,3.2v3.5
			c0,2.1-0.7,3.6-2,4.5l1.2,0.8c0.6,0.4,0.9,0.9,0.9,1.5V830.9z M203.5,815.8v-2.2c0-0.9-0.1-1.4-0.2-1.7c-0.2-0.4-0.8-0.6-1.6-0.6
			h-2.2v7.4l1.5,0.9c0.3,0.2,0.5,0.3,0.6,0.3c0.4,0,0.8-0.3,1.1-1C203.3,818.2,203.5,817.1,203.5,815.8z"/>
		<path class="st0" d="M225.3,824.1c0,2.3-0.4,4.1-1.2,5.4c-0.7,1.2-1.6,1.8-2.7,1.8c-1.1,0-2-0.6-2.7-1.8c-0.8-1.3-1.2-3.1-1.2-5.4
			v-14.3h4.7c1.2,0,2,0.3,2.5,1c0.4,0.6,0.6,1.6,0.6,3.1V824.1z M223.5,824.1v-10.3c0-0.7-0.1-1.2-0.2-1.5c-0.2-0.5-0.6-0.7-1.2-0.7
			h-2.8V825c0,1.3,0.2,2.3,0.7,3.2c0.4,0.9,0.9,1.3,1.4,1.3c0.6,0,1.1-0.4,1.4-1.3C223.3,827.2,223.5,825.8,223.5,824.1z"/>
		<path class="st0" d="M237.4,830.9h-1.7v-6.9c0-0.5-0.3-0.9-0.9-1.3l-3.2-1.9v10.2h-1.8v-21.1h4.4c2,0,3,1.1,3,3.2v3.5
			c0,2.1-0.7,3.6-2,4.5l1.2,0.8c0.6,0.4,0.9,0.9,0.9,1.5V830.9z M235.6,815.8v-2.2c0-0.9-0.1-1.4-0.2-1.7c-0.2-0.4-0.8-0.6-1.6-0.6
			h-2.2v7.4l1.5,0.9c0.3,0.2,0.5,0.3,0.6,0.3c0.4,0,0.8-0.3,1.1-1C235.4,818.2,235.6,817.1,235.6,815.8z"/>
		<path class="st0" d="M248,830.9h-3.1c-2,0-3-1.1-3-3.3V813c0-2.1,1-3.2,3-3.2h3.1v1.6h-2.6c-0.8,0-1.2,0.1-1.4,0.4
			c-0.2,0.3-0.3,0.9-0.3,1.8v4.8h4.1v1.7h-4.1v6.9c0,0.8,0.1,1.4,0.2,1.7c0.2,0.4,0.6,0.6,1.1,0.6h3V830.9z"/>
		<path class="st0" d="M259.8,813c0,0.1,0,0.3,0,0.5c0,0.2,0,0.3,0,0.4v17h-1.7v-7.6h-4v7.6h-1.7V813c0-2.1,1-3.2,3-3.2h1.4
			C258.8,809.8,259.8,810.9,259.8,813z M258.1,821.5v-7.8c0-0.9-0.1-1.4-0.2-1.7c-0.2-0.4-0.7-0.6-1.6-0.6h-0.5
			c-0.8,0-1.4,0.2-1.6,0.6c-0.1,0.2-0.2,0.8-0.2,1.7v7.8H258.1z"/>
		<path class="st0" d="M276,830.9h-1.7v-18.4l-0.2,0l-2.7,2.8c-0.3,0.3-0.4,0.6-0.4,0.9v14.8h-1.7v-14.8c0-0.3-0.1-0.6-0.4-0.9
			l-2.7-2.8l-0.2,0v18.4h-1.7v-21.1h1.2c0.4,0,0.7,0.1,1,0.4l3.7,4.1l3.7-4.1c0.2-0.3,0.6-0.4,0.9-0.4h1.2V830.9z"/>
		<path class="st0" d="M296.1,825.2c0,1.8-0.4,3.3-1.3,4.5c-0.8,1.1-1.6,1.7-2.6,1.7c-1,0-1.8-0.6-2.6-1.7c-0.8-1.2-1.3-2.7-1.3-4.5
			V813c0-2.1,1-3.2,3-3.2h1.7c1.2,0,2,0.3,2.4,1c0.4,0.5,0.6,1.5,0.6,2.9v1.8h-1.7v-1.8c0-0.7-0.1-1.2-0.2-1.5
			c-0.2-0.5-0.6-0.7-1.2-0.7h-1.5c-0.6,0-1,0.2-1.2,0.7c-0.1,0.3-0.2,0.8-0.2,1.5v10.4c0,1.7,0.2,3.1,0.6,4.1
			c0.4,0.9,0.9,1.4,1.5,1.4s1.1-0.4,1.5-1.3c0.4-1,0.6-2.4,0.6-4.1V823h1.7V825.2z"/>
		<path class="st0" d="M308.3,824.1c0,2.3-0.3,4-1,5.1c-0.8,1.4-1.8,2.1-2.9,2.1c-1.1,0-2-0.7-2.9-2.1c-0.7-1.1-1-2.8-1-5.1v-10.2
			c0-1.5,0.2-2.5,0.6-3.1c0.4-0.7,1.3-1,2.5-1h1.6c1.2,0,2.1,0.3,2.5,1c0.4,0.6,0.6,1.6,0.6,3.1V824.1z M306.6,824.1v-10.3
			c0-0.7-0.1-1.2-0.2-1.5c-0.2-0.5-0.6-0.7-1.2-0.7h-1.5c-0.6,0-1,0.2-1.2,0.7c-0.1,0.3-0.2,0.8-0.2,1.5v10.3c0,1.7,0.2,3.1,0.7,4.1
			c0.4,0.9,0.9,1.3,1.5,1.3c0.6,0,1.1-0.4,1.5-1.3C306.4,827.2,306.6,825.8,306.6,824.1z"/>
		<path class="st0" d="M324.6,830.9h-1.7v-18.4l-0.2,0l-2.7,2.8c-0.3,0.3-0.4,0.6-0.4,0.9v14.8h-1.7v-14.8c0-0.3-0.1-0.6-0.4-0.9
			l-2.7-2.8l-0.2,0v18.4H313v-21.1h1.2c0.4,0,0.7,0.1,1,0.4l3.7,4.1l3.7-4.1c0.2-0.3,0.6-0.4,0.9-0.4h1.2V830.9z"/>
		<path class="st0" d="M335.3,830.9h-3.1c-2,0-3-1.1-3-3.3V813c0-2.1,1-3.2,3-3.2h3.1v1.6h-2.6c-0.8,0-1.2,0.1-1.4,0.4
			c-0.2,0.3-0.3,0.9-0.3,1.8v4.8h4.1v1.7H331v6.9c0,0.8,0.1,1.4,0.2,1.7c0.2,0.4,0.6,0.6,1.1,0.6h3V830.9z"/>
		<path class="st0" d="M354,811.4h-2.9v19.5h-1.8v-19.5h-2.9v-1.6h7.5V811.4z"/>
		<path class="st0" d="M365.4,830.9h-1.7v-6.9c0-0.5-0.3-0.9-0.9-1.3l-3.2-1.9v10.2h-1.8v-21.1h4.4c2,0,3,1.1,3,3.2v3.5
			c0,2.1-0.7,3.6-2,4.5l1.2,0.8c0.6,0.4,0.9,0.9,0.9,1.5V830.9z M363.6,815.8v-2.2c0-0.9-0.1-1.4-0.2-1.7c-0.2-0.4-0.8-0.6-1.6-0.6
			h-2.2v7.4l1.5,0.9c0.3,0.2,0.5,0.3,0.6,0.3c0.4,0,0.8-0.3,1.1-1C363.4,818.2,363.6,817.1,363.6,815.8z"/>
		<path class="st0" d="M377.6,830.9h-4.5c-1.2,0-2-0.3-2.4-1c-0.5-0.7-0.7-1.8-0.7-3.3v-16.7h1.8v16.9c0,1,0.1,1.6,0.4,2
			c0.2,0.4,0.7,0.6,1.3,0.6h2.4v-19.5h1.7V830.9z"/>
		<path class="st0" d="M388.4,830.9h-3.1c-2,0-3-1.1-3-3.3V813c0-2.1,1-3.2,3-3.2h3.1v1.6h-2.6c-0.8,0-1.2,0.1-1.4,0.4
			c-0.2,0.3-0.3,0.9-0.3,1.8v4.8h4.1v1.7h-4.1v6.9c0,0.8,0.1,1.4,0.2,1.7c0.2,0.4,0.6,0.6,1.1,0.6h3V830.9z"/>
		<path class="st0" d="M395.2,827.6l-2.3,6h-0.1v-6H395.2z"/>
		<path class="st0" d="M413.4,811.4h-2.9v19.5h-1.8v-19.5h-2.9v-1.6h7.5V811.4z"/>
		<path class="st0" d="M424.2,824.1c0,2.3-0.3,4-1,5.1c-0.8,1.4-1.8,2.1-2.9,2.1c-1.1,0-2-0.7-2.9-2.1c-0.7-1.1-1-2.8-1-5.1v-10.2
			c0-1.5,0.2-2.5,0.6-3.1c0.4-0.7,1.3-1,2.5-1h1.6c1.2,0,2.1,0.3,2.5,1c0.4,0.6,0.6,1.6,0.6,3.1V824.1z M422.5,824.1v-10.3
			c0-0.7-0.1-1.2-0.2-1.5c-0.2-0.5-0.6-0.7-1.2-0.7h-1.5c-0.6,0-1,0.2-1.2,0.7c-0.1,0.3-0.2,0.8-0.2,1.5v10.3c0,1.7,0.2,3.1,0.7,4.1
			c0.4,0.9,0.9,1.3,1.5,1.3c0.6,0,1.1-0.4,1.5-1.3C422.2,827.2,422.5,825.8,422.5,824.1z"/>
		<path class="st0" d="M436.5,825.2c0,1.8-0.4,3.3-1.2,4.5c-0.7,1.1-1.6,1.6-2.5,1.6c-1,0-1.8-0.6-2.6-1.7c-0.8-1.2-1.3-2.7-1.3-4.5
			V813c0-2.1,1-3.2,3-3.2h1.5c2,0,3,1.1,3,3.2v2.5h-1.8v-1.8c0-0.7-0.1-1.2-0.2-1.5c-0.2-0.5-0.6-0.7-1.2-0.7h-1.4
			c-0.6,0-1,0.2-1.2,0.7c-0.1,0.3-0.2,0.8-0.2,1.5v10.4c0,1.7,0.2,3.1,0.6,4.1c0.4,0.9,0.9,1.3,1.4,1.3c0.6,0,1.1-0.4,1.4-1.3
			c0.4-1,0.6-2.4,0.6-4.1V822h-2v-1.7h3.7V825.2z"/>
		<path class="st0" d="M447.2,830.9h-3.1c-2,0-3-1.1-3-3.3V813c0-2.1,1-3.2,3-3.2h3.1v1.6h-2.6c-0.8,0-1.2,0.1-1.4,0.4
			c-0.2,0.3-0.3,0.9-0.3,1.8v4.8h4.1v1.7h-4.1v6.9c0,0.8,0.1,1.4,0.2,1.7c0.2,0.4,0.6,0.6,1.1,0.6h3V830.9z"/>
		<path class="st0" d="M458.2,811.4h-2.9v19.5h-1.8v-19.5h-2.9v-1.6h7.5V811.4z"/>
		<path class="st0" d="M469.8,830.9h-1.8v-10.7h-4.2v10.7h-1.8v-21.1h1.8v8.7h4.2v-8.7h1.8V830.9z"/>
		<path class="st0" d="M480.6,830.9h-3.1c-2,0-3-1.1-3-3.3V813c0-2.1,1-3.2,3-3.2h3.1v1.6H478c-0.8,0-1.2,0.1-1.4,0.4
			c-0.2,0.3-0.3,0.9-0.3,1.8v4.8h4.1v1.7h-4.1v6.9c0,0.8,0.1,1.4,0.2,1.7c0.2,0.4,0.6,0.6,1.1,0.6h3V830.9z"/>
		<path class="st0" d="M492.4,830.9h-1.7v-6.9c0-0.5-0.3-0.9-0.9-1.3l-3.2-1.9v10.2h-1.8v-21.1h4.4c2,0,3,1.1,3,3.2v3.5
			c0,2.1-0.7,3.6-2,4.5l1.2,0.8c0.6,0.4,0.9,0.9,0.9,1.5V830.9z M490.6,815.8v-2.2c0-0.9-0.1-1.4-0.2-1.7c-0.2-0.4-0.8-0.6-1.6-0.6
			h-2.2v7.4l1.5,0.9c0.3,0.2,0.5,0.3,0.6,0.3c0.4,0,0.8-0.3,1.1-1C490.4,818.2,490.6,817.1,490.6,815.8z"/>
	</g>
	<g>
		<linearGradient id="SVGID_1_" gradientUnits="userSpaceOnUse" x1="670.2542" y1="518.7623" x2="297.3489" y2="521.4743">
			<stop  offset="0" style="stop-color:#60BA46"/>
			<stop  offset="0.5767" style="stop-color:#036436"/>
			<stop  offset="1" style="stop-color:#013538"/>
		</linearGradient>
		<polygon class="st1" points="388,450.1 388,450.1 397.1,465.9 406.2,481.6 415.3,497.4 424.4,513.1 433.5,528.9 469.3,590.8 
			487.5,590.8 442.6,513.1 433.5,497.4 424.4,481.6 415.3,465.9 406.2,450.1 406.3,450.1 406.2,450.1 388.1,450.1 		"/>
		<linearGradient id="SVGID_2_" gradientUnits="userSpaceOnUse" x1="670.2523" y1="518.4976" x2="297.347" y2="521.2097">
			<stop  offset="0" style="stop-color:#60BA46"/>
			<stop  offset="0.5767" style="stop-color:#036436"/>
			<stop  offset="1" style="stop-color:#013538"/>
		</linearGradient>
		<polygon class="st2" points="360.8,465.9 369.8,481.6 378.9,497.4 388,513.1 397.1,528.9 406.2,544.7 415.3,560.4 432.9,590.8 
			451.1,590.8 424.4,544.7 406.2,513.1 397.1,497.4 388,481.6 378.9,465.9 369.8,450.1 369.9,450.1 369.8,450.1 351.7,450.1 
			351.6,450.1 351.7,450.1 		"/>
		<linearGradient id="SVGID_3_" gradientUnits="userSpaceOnUse" x1="670.2561" y1="519.0269" x2="297.3509" y2="521.739">
			<stop  offset="0" style="stop-color:#60BA46"/>
			<stop  offset="0.5767" style="stop-color:#036436"/>
			<stop  offset="1" style="stop-color:#013538"/>
		</linearGradient>
		<polygon class="st3" points="442.6,450.1 424.5,450.1 424.4,450.1 424.4,450.1 433.5,465.9 442.6,481.6 451.7,497.4 505.7,590.8 
			523.9,590.8 460.8,481.6 451.7,465.9 442.6,450.1 442.7,450.1 		"/>
		<linearGradient id="SVGID_4_" gradientUnits="userSpaceOnUse" x1="670.5901" y1="564.9543" x2="297.6849" y2="567.6664">
			<stop  offset="0" style="stop-color:#60BA46"/>
			<stop  offset="0.5767" style="stop-color:#036436"/>
			<stop  offset="1" style="stop-color:#013538"/>
		</linearGradient>
		<polygon class="st4" points="423.3,604.8 379.6,529.1 379.6,529.1 379.5,529.1 378.9,529.1 387.9,544.7 388,544.8 379.2,560 
			405.1,604.8 		"/>
		<linearGradient id="SVGID_5_" gradientUnits="userSpaceOnUse" x1="670.9102" y1="608.9698" x2="298.005" y2="611.6818">
			<stop  offset="0" style="stop-color:#60BA46"/>
			<stop  offset="0.5767" style="stop-color:#036436"/>
			<stop  offset="1" style="stop-color:#013538"/>
		</linearGradient>
		<polygon class="st5" points="388,544.8 387.9,544.7 378.9,529.1 370.1,544.2 285.1,691.4 285.2,691.4 283.9,693.7 302.4,693.7 
			329.7,645.8 329.7,645.8 379.2,560 		"/>
		<polygon class="st0" points="63.8,693.7 125.5,708 294.2,708 302.1,693.7 		"/>
		<polygon class="st0" points="276,708 294.2,708 302.4,693.7 283.9,693.7 		"/>
		<polygon class="st0" points="172.7,376.2 174.6,93.7 140.4,59.2 138.1,409.9 		"/>
		<polygon class="st0" points="14.5,557.4 13.3,313.6 46.9,340.9 47.8,527.1 		"/>
		<polygon class="st6" points="351.6,481.8 351.5,481.6 342.5,466 240.3,643 239.9,675.2 		"/>
		<polygon class="st6" points="242,500.3 220.7,485.4 219,679.7 219.1,679.7 240.3,643 		"/>
		<polygon class="st6" points="240.3,643 219.1,679.7 237.3,679.7 239.9,675.2 		"/>
		<path class="st0" d="M66.7,2.8l-34,24.8l-2.2,271l22.1,16.7l12,9.1l-0.8,369.3l33.3-89.3l0.3-164.8l18.8-19.6l3.4-377.2L66.7,2.8z
			 M72.5,282l-20.8-11.7L53.3,76l21.3,14.9L72.5,282z"/>
		<g>
			<linearGradient id="SVGID_6_" gradientUnits="userSpaceOnUse" x1="670.9332" y1="612.1279" x2="298.028" y2="614.84">
				<stop  offset="0" style="stop-color:#60BA46"/>
				<stop  offset="0.5767" style="stop-color:#036436"/>
				<stop  offset="1" style="stop-color:#013538"/>
			</linearGradient>
			<rect x="360.3" y="606.8" class="st7" width="16" height="15.1"/>
			<linearGradient id="SVGID_7_" gradientUnits="userSpaceOnUse" x1="670.9343" y1="612.2745" x2="298.029" y2="614.9865">
				<stop  offset="0" style="stop-color:#60BA46"/>
				<stop  offset="0.5767" style="stop-color:#036436"/>
				<stop  offset="1" style="stop-color:#013538"/>
			</linearGradient>
			<rect x="380.4" y="606.8" class="st8" width="16" height="15.1"/>
			<linearGradient id="SVGID_8_" gradientUnits="userSpaceOnUse" x1="671.0722" y1="631.2466" x2="298.167" y2="633.9587">
				<stop  offset="0" style="stop-color:#60BA46"/>
				<stop  offset="0.5767" style="stop-color:#036436"/>
				<stop  offset="1" style="stop-color:#013538"/>
			</linearGradient>
			<rect x="360.3" y="625.9" class="st9" width="16" height="15.1"/>
			<linearGradient id="SVGID_9_" gradientUnits="userSpaceOnUse" x1="671.0733" y1="631.3932" x2="298.1681" y2="634.1052">
				<stop  offset="0" style="stop-color:#60BA46"/>
				<stop  offset="0.5767" style="stop-color:#036436"/>
				<stop  offset="1" style="stop-color:#013538"/>
			</linearGradient>
			<rect x="380.4" y="625.9" class="st10" width="16" height="15.1"/>
		</g>
		<linearGradient id="SVGID_10_" gradientUnits="userSpaceOnUse" x1="670.7438" y1="586.0938" x2="297.8386" y2="588.8058">
			<stop  offset="0" style="stop-color:#60BA46"/>
			<stop  offset="0.5767" style="stop-color:#036436"/>
			<stop  offset="1" style="stop-color:#013538"/>
		</linearGradient>
		<polygon class="st11" points="369.8,513.3 369.7,513.1 360.7,497.5 255.4,679.8 273.6,679.8 		"/>
		<linearGradient id="SVGID_11_" gradientUnits="userSpaceOnUse" x1="280.2112" y1="556.7645" x2="177.4526" y2="545.0579">
			<stop  offset="0" style="stop-color:#60BA46"/>
			<stop  offset="0.5767" style="stop-color:#036436"/>
			<stop  offset="1" style="stop-color:#013538"/>
		</linearGradient>
		<polygon class="st12" points="199.8,426.5 173.8,404 125.8,446.2 125.3,679.8 156.5,679.8 156.7,587.5 170.6,570.9 169.9,679.8 
			197.3,679.8 		"/>
		<g>
			<linearGradient id="SVGID_12_" gradientUnits="userSpaceOnUse" x1="670.9183" y1="610.0775" x2="298.013" y2="612.7896">
				<stop  offset="0" style="stop-color:#60BA46"/>
				<stop  offset="0.5767" style="stop-color:#036436"/>
				<stop  offset="1" style="stop-color:#013538"/>
			</linearGradient>
			<polygon class="st13" points="405.1,604.8 413.3,619.1 431.5,619.1 423.3,604.8 			"/>
			<linearGradient id="SVGID_13_" gradientUnits="userSpaceOnUse" x1="670.9211" y1="610.4727" x2="298.0159" y2="613.1847">
				<stop  offset="0" style="stop-color:#60BA46"/>
				<stop  offset="0.5767" style="stop-color:#036436"/>
				<stop  offset="1" style="stop-color:#013538"/>
			</linearGradient>
			<polygon class="st14" points="531.9,604.8 405.1,604.8 421.3,619.1 540.2,619.1 			"/>
		</g>
	</g>
	<g>
		<path class="st0" d="M6.4,787.3v-36.4h7.8v14.2h11.1v-14.2h7.8v36.4h-7.8v-14.4H14.2v14.4H6.4z"/>
		<path class="st0" d="M61.2,758.7c0-0.6,0.1-1.2,0.2-1.9c0.5-2.2,1.4-3.7,2.7-4.6c1.2-0.9,3-1.3,5.3-1.3h9.2c5.4,0,8.2,2.6,8.2,7.9
			v20.7c0,5.2-2.7,7.9-8.2,7.9h-9.2c-2.4,0-4.2-0.4-5.4-1.2c-1.3-0.9-2.2-2.5-2.6-4.8c-0.1-0.8-0.2-1.4-0.2-1.9V758.7z M69,776.9
			c0,1.7,0.9,2.5,2.6,2.5h4.8c0.9,0,1.6-0.1,2-0.4c0.4-0.3,0.6-0.9,0.6-1.8v-16c0-0.9-0.2-1.6-0.6-2c-0.4-0.4-1.1-0.5-2.1-0.5h-4.8
			c-1,0-1.6,0.2-2,0.5c-0.3,0.3-0.5,1-0.5,2V776.9z"/>
		<path class="st0" d="M114.8,787.3v-30c0-2,0.6-3.7,1.9-5c1.2-1.3,2.9-1.9,4.9-1.9c0.7,0,1.4,0.1,2.1,0.2c2.5,0.5,4,2,4.6,4.6
			l4.6,21l5.1-21c0.6-2.5,2.1-4.1,4.5-4.6c0.7-0.1,1.4-0.2,2.1-0.2c2,0,3.7,0.6,4.9,1.9c1.2,1.3,1.9,2.9,1.9,5v30h-7.4v-26.1
			l-5.7,22c-0.2,0.7-0.5,1.5-0.8,2.2c-0.9,1.8-2.3,2.7-4.4,2.7c-2.6,0-4.4-1.6-5.2-4.9l-5.6-22v26.1H114.8z"/>
		<path class="st0" d="M179.3,779.7v-21c0-0.4,0.1-0.9,0.2-1.6c0.7-4.2,3.1-6.3,7.4-6.3h16.2v7.9H189c-0.1,0-0.3,0.1-0.5,0.2
			c-0.9,0.3-1.4,1-1.4,2.1v4.1h16v7.9h-16v4.1c0,1.5,0.7,2.3,2,2.4h13.9v7.9H188C182.2,787.3,179.3,784.7,179.3,779.7z"/>
		<path class="st0" d="M266.1,787.3l10.1-31.9c1-3.2,3.1-4.8,6.1-4.8c3.1,0,5.1,1.6,6.1,4.9l10,31.9h-8.2l-2.5-7.9h-11.1l-2.4,7.9
			H266.1z M285.5,772l-3.7-11.8l-2.7,11.8H285.5z"/>
		<path class="st0" d="M324,750.9h18.3c4.3,0,6.8,2,7.4,6c0,0.2,0.1,0.7,0.1,1.4v7.3c0,0.7,0,1.2-0.1,1.5c-0.7,3.4-2.7,5.3-5.9,5.8
			c-0.6,0.1-1,0.1-1.4,0.1l-1.3,0l8.9,14.4h-9.2l-8.2-13.6c-0.5-0.8-0.7-1.8-0.6-2.8c0.3-3.1,1.8-4.6,4.7-4.6h3.2
			c1.4,0,2.1-0.7,2.1-2.1v-3.3c0-1.2-0.6-1.9-1.9-2.1c-0.1,0-0.3-0.1-0.5-0.1h-7.8v28.6H324V750.9z"/>
		<path class="st0" d="M377.4,779.2v-20c0-3.2,0.6-5.3,1.9-6.5c1.2-1.2,3.5-1.8,6.7-1.8h15.3v7.9h-14.2c-1,0.1-1.6,0.6-1.8,1.6v15.9
			c0,1.1,0.1,1.9,0.4,2.3c0.3,0.6,1,0.9,2,0.9h13.7v7.9h-16.4c-0.9,0-1.8-0.2-2.8-0.6C379,785.5,377.4,783,377.4,779.2z"/>
		<path class="st0" d="M466.5,750.9h18.9c2.7,0,4.7,0.8,6,2.4c0.9,1.1,1.3,3,1.3,5.8v3c0,3.5-1.1,5.8-3.2,6.9
			c1.8,0.8,2.8,2.5,3.1,5.1c0.1,0.6,0.1,1.1,0.1,1.4v3.6c0,0.5,0,1-0.1,1.6c-0.6,4.4-3.1,6.6-7.5,6.6h-18.5V750.9z M474.3,765.1h8.6
			c1.2,0,1.8-0.7,1.8-2v-2.4c0-0.5-0.2-1-0.5-1.4c-0.3-0.4-0.8-0.6-1.3-0.6h-8.6V765.1z M474.3,779.4h8.6c1.2-0.1,1.8-0.8,1.8-2
			v-2.3c0-1.2-0.6-1.9-1.9-2.1h-8.5C474.3,777.2,474.3,779.4,474.3,779.4z"/>
		<path class="st0" d="M520.6,787.3v-36.4h18.6c5.2,0,7.8,2.7,7.8,8.1v20.3c0,0.3,0,0.8-0.1,1.4c-0.5,4.4-3,6.7-7.4,6.7
			C539.4,787.4,533.1,787.4,520.6,787.3z M536.5,779.4c1,0,1.7-0.2,2.1-0.5c0.3-0.2,0.5-0.9,0.6-2.1c0-0.1,0.1-0.3,0.1-0.5v-15.9
			c0-0.9-0.7-1.4-2.1-1.6c-0.1,0-0.3-0.1-0.6-0.1h-8v20.7H536.5z"/>
	</g>
</g>
</svg>
